<?xml version="1.0" encoding="utf-8"?>
<!-- Generator: Adobe Illustrator 25.2.3, SVG Export Plug-In . SVG Version: 6.00 Build 0)  -->
<svg version="1.1" id="Capa_1" xmlns="http://www.w3.org/2000/svg" xmlns:xlink="http://www.w3.org/1999/xlink" x="0px" y="0px"
	 viewBox="0 0 329 262" style="enable-background:new 0 0 329 262;" xml:space="preserve">
<style type="text/css">
	.st0{fill:#217ab5;}
</style>
<g>
	<path class="st0" d="M316.5,60.8c-0.4,0.4-0.8,0.7-1.2,1.1c-46.8,46.8-93.6,93.6-140.4,140.4c-14.6,14.6-29.2,29.2-43.8,43.8
		c-0.4,0.4-0.7,0.7-1.1,1.1c-0.9-0.5-113-112.4-114.9-114.7C29.4,118.2,43.7,104,58,89.6c24,24,47.9,47.9,71.9,71.8
		c47.9-47.9,95.8-95.8,143.7-143.7c0.5,0.4,0.8,0.8,1.2,1.2c13.6,13.6,27.2,27.2,40.8,40.8c0.3,0.3,0.6,0.5,0.9,0.7
		C316.5,60.6,316.5,60.7,316.5,60.8z"/>
</g>
</svg>
