<?xml version="1.0" encoding="utf-8"?>
<!-- Generator: Adobe Illustrator 25.2.3, SVG Export Plug-In . SVG Version: 6.00 Build 0)  -->
<svg version="1.1" id="Capa_1" xmlns="http://www.w3.org/2000/svg" xmlns:xlink="http://www.w3.org/1999/xlink" x="0px" y="0px"
	 viewBox="0 0 23.8 28.1" style="enable-background:new 0 0 23.8 28.1;" xml:space="preserve">
<style type="text/css">
	.st0{fill:#0069B3;}
</style>
<g>
	<path class="st0" d="M3.8,12.8c1.3,0,2.7,0,4.1,0c0-0.3,0-0.6,0-0.9c0-3.5,0-7,0-10.4c0-0.3,0.1-0.4,0.4-0.4c2.4,0,4.7,0,7.1,0
		c0.1,0,0.2,0,0.3,0c0,3.9,0,7.8,0,11.7c1.4,0,2.7,0,4.2,0c-2.7,3.6-5.4,7.1-8,10.7C9,19.9,6.4,16.4,3.8,12.8
		C3.7,12.9,3.8,12.8,3.8,12.8z"/>
	<path class="st0" d="M1.8,24c7,0,14,0,21,0c0,1,0,2,0,3c-7,0-14,0-21,0C1.8,26,1.8,25.1,1.8,24z"/>
</g>
</svg>
