<?xml version="1.0" encoding="utf-8"?>
<!-- Generator: Adobe Illustrator 25.2.3, SVG Export Plug-In . SVG Version: 6.00 Build 0)  -->
<svg version="1.1" id="Modo_de_aislamiento" xmlns="http://www.w3.org/2000/svg" xmlns:xlink="http://www.w3.org/1999/xlink"
	 x="0px" y="0px" viewBox="0 0 157.5 108.5" style="enable-background:new 0 0 157.5 108.5;" xml:space="preserve">
	 <style type="text/css">
		.st0{fill:#001f4e;}
	</style>
<g>
	<path class="st0" d="M79.2,97.3c-21.9-21.9-43-43-63.9-64.2c-5.4-5.5-5.2-13.4-0.1-18.4c5-4.9,12.9-4.8,18.4,0.7C47.1,28.9,60.6,42.5,74.2,56
		c4.6,4.6,4.7,4.6,9.5-0.1C97.1,42.5,110.5,29,124,15.6c5.9-5.9,13.9-5.9,19-0.3c4.8,5.3,4.4,12.7-1.3,18.3
		c-18.9,19-37.9,37.9-56.9,56.9C82.8,92.5,81.2,94.9,79.2,97.3z"/>
</g>
</svg>
